<svg width="40" height="40" viewBox="0 0 40 40" fill="none" xmlns="http://www.w3.org/2000/svg">
<circle cx="20" cy="20" r="20" fill="url(#paint0_linear_120_6)"/>
<path d="M18.0469 24.4219C18.1771 24.4219 18.2422 24.5156 18.2422 24.7031C18.2422 24.8854 18.2083 25.0365 18.1406 25.1562C18.0729 25.276 17.9948 25.3854 17.9062 25.4844C17.8177 25.5833 17.7057 25.6771 17.5703 25.7656C17.2526 25.974 16.9167 26.0781 16.5625 26.0781C16.2135 26.0781 15.9349 26.0365 15.7266 25.9531C15.5234 25.8646 15.3464 25.7344 15.1953 25.5625C14.8724 25.2031 14.7109 24.7057 14.7109 24.0703C14.7109 23.3932 14.8411 22.5677 15.1016 21.5938C15.362 20.6146 15.612 19.7786 15.8516 19.0859C16.0964 18.388 16.3464 17.724 16.6016 17.0938L17.3047 15.3047C16.5339 15.9974 15.5573 17.4531 14.375 19.6719L12.4844 23.25C11.474 25.1354 10.7526 26.0781 10.3203 26.0781C9.89844 26.0781 9.60938 25.8958 9.45312 25.5312C9.3125 25.1823 9.24219 24.5911 9.24219 23.7578C9.24219 22.9193 9.30729 22.1172 9.4375 21.3516C9.57292 20.5807 9.74219 19.8281 9.94531 19.0938C10.2995 17.7969 10.7578 16.5104 11.3203 15.2344C10.7734 15.5417 10.1667 16.2266 9.5 17.2891C8.98958 18.138 8.63021 18.7578 8.42188 19.1484L6.40625 22.8594C5.56771 24.3854 4.89323 25.3281 4.38281 25.6875C4.01302 25.9479 3.61458 26.0781 3.1875 26.0781C2.82292 26.0781 2.5599 25.9635 2.39844 25.7344C2.33594 25.6406 2.30469 25.5547 2.30469 25.4766C2.30469 25.3984 2.32812 25.3516 2.375 25.3359C2.69792 25.2474 2.92708 25.1562 3.0625 25.0625C3.19271 24.9635 3.32292 24.8646 3.45312 24.7656C3.58333 24.6615 3.77344 24.4453 4.02344 24.1172C4.27344 23.7839 4.54427 23.3854 4.83594 22.9219C5.1276 22.4531 5.43229 21.9297 5.75 21.3516L6.74219 19.5234C7.65885 17.7526 8.61719 16.3333 9.61719 15.2656C9.97135 14.8854 10.3203 14.5911 10.6641 14.3828C11.0078 14.138 11.4062 13.974 11.8594 13.8906C11.9844 13.8646 12.099 13.8516 12.2031 13.8516C12.3125 13.8516 12.4323 13.8672 12.5625 13.8984C12.6979 13.9297 12.8151 13.9792 12.9141 14.0469C13.1432 14.2031 13.2109 14.4115 13.1172 14.6719C13.0755 14.8281 12.9948 15.0625 12.875 15.375L12.4531 16.4922C11.4688 19.2109 10.9297 21.6849 10.8359 23.9141C11.112 23.4401 11.3906 22.9219 11.6719 22.3594L12.5547 20.6172L13.4844 18.8438C14.9167 16.1875 16.2474 14.6667 17.4766 14.2812C17.7318 14.1979 17.9453 14.1562 18.1172 14.1562C18.2891 14.1562 18.4245 14.1797 18.5234 14.2266C18.6224 14.2682 18.7109 14.3229 18.7891 14.3906C18.9714 14.5573 19.0339 14.7292 18.9766 14.9062C18.9193 15.0781 18.8438 15.2995 18.75 15.5703L17.6172 18.875L17.2109 20.1719C16.763 21.6719 16.4974 22.8229 16.4141 23.625C16.3828 23.9635 16.4193 24.2292 16.5234 24.4219C16.6328 24.6094 16.7812 24.7031 16.9688 24.7031C17.1562 24.7031 17.3021 24.6901 17.4062 24.6641C17.5156 24.6328 17.6094 24.599 17.6875 24.5625L17.8906 24.4688C17.9479 24.4375 18 24.4219 18.0469 24.4219ZM22.0469 25.8359C21.9427 25.987 21.7578 26.0625 21.4922 26.0625C21.2318 26.0625 21.0104 25.9896 20.8281 25.8438C20.6458 25.6979 20.4948 25.5156 20.375 25.2969C20.1354 24.8594 20.0156 24.4219 20.0156 23.9844C20.0156 23.5469 20.0625 23.099 20.1562 22.6406C20.2552 22.1823 20.388 21.7005 20.5547 21.1953C20.7214 20.6849 20.9141 20.1641 21.1328 19.6328C21.3568 19.1016 21.5938 18.5833 21.8438 18.0781C22.3542 17.026 22.862 16.1146 23.3672 15.3438H23.2812C22.6615 15.3438 22.0859 15.4844 21.5547 15.7656C21.4245 15.8646 21.2995 15.9141 21.1797 15.9141C20.9297 15.9141 20.6875 15.7917 20.4531 15.5469C19.9115 14.974 20.2344 14.5 21.4219 14.125C21.9792 13.9427 22.4271 13.8516 22.7656 13.8516C23.1094 13.8516 23.3854 13.9062 23.5938 14.0156C23.8021 14.1198 23.9792 14.2448 24.125 14.3906C24.3542 14.6198 24.5156 14.8464 24.6094 15.0703C24.7083 15.2943 24.7578 15.4922 24.7578 15.6641C24.7578 15.8307 24.7057 16.0573 24.6016 16.3438C24.5026 16.625 24.375 16.9271 24.2188 17.25L23.6875 18.2812C23.5 18.6406 23.3125 19.0182 23.125 19.4141C22.9375 19.8099 22.75 20.2057 22.5625 20.6016C22.375 20.9974 22.2083 21.3828 22.0625 21.7578C21.7448 22.5964 21.5859 23.3073 21.5859 23.8906C21.5859 24.2135 21.6172 24.4922 21.6797 24.7266L22.5 23.3594C24.1667 20.6719 25.8125 18.651 27.4375 17.2969C27.8958 16.9115 28.349 16.6094 28.7969 16.3906C28.8698 16.3542 28.9557 16.3359 29.0547 16.3359C29.1536 16.3359 29.2578 16.349 29.3672 16.375C29.4818 16.3958 29.5885 16.4297 29.6875 16.4766C29.9167 16.5859 30.0312 16.7188 30.0312 16.875C30.0312 16.9479 30.0052 17.0156 29.9531 17.0781L29.6797 17.375C28.638 18.4792 27.9375 20.0208 27.5781 22C27.4635 22.6094 27.4062 23.0938 27.4062 23.4531C27.4062 23.8073 27.4167 24.0495 27.4375 24.1797C27.4583 24.3099 27.5 24.4323 27.5625 24.5469C27.7031 24.8073 27.9141 24.9375 28.1953 24.9375C28.4766 24.9375 28.7891 24.8333 29.1328 24.625C29.4766 24.4167 29.8229 24.1302 30.1719 23.7656C30.526 23.401 30.8672 22.974 31.1953 22.4844C31.5286 21.9896 31.8229 21.4609 32.0781 20.8984C32.651 19.6536 32.9375 18.4661 32.9375 17.3359C32.9375 16.4661 32.7448 15.7292 32.3594 15.125C32.2552 14.9688 32.3568 14.7656 32.6641 14.5156C32.9766 14.2552 33.3281 14.125 33.7188 14.125C34.2344 14.125 34.5833 14.5833 34.7656 15.5C34.8281 15.8021 34.8594 16.1979 34.8594 16.6875C34.8594 17.1771 34.7995 17.7161 34.6797 18.3047C34.5599 18.8932 34.3906 19.4688 34.1719 20.0312C33.9583 20.5885 33.7031 21.125 33.4062 21.6406C33.1146 22.1562 32.7943 22.638 32.4453 23.0859C32.0964 23.5339 31.7266 23.9427 31.3359 24.3125C30.9453 24.6771 30.5469 24.9896 30.1406 25.25C29.3021 25.8021 28.5078 26.0781 27.7578 26.0781C27.0703 26.0781 26.5573 25.8073 26.2188 25.2656C25.9219 24.7969 25.7734 24.2005 25.7734 23.4766C25.7734 22.2786 26.0052 21.1146 26.4688 19.9844C26.0365 20.4688 25.6146 20.9688 25.2031 21.4844C24.1823 22.8177 23.4714 23.7734 23.0703 24.3516L22.0469 25.8359Z" fill="black"/>
<defs>
<linearGradient id="paint0_linear_120_6" x1="20" y1="0" x2="20" y2="40" gradientUnits="userSpaceOnUse">
<stop stop-color="#E9CEF7"/>
<stop offset="0.707648" stop-color="#F7BEF3"/>
</linearGradient>
</defs>
</svg>
