<svg width="48" height="48" viewBox="0 0 48 48" fill="none" xmlns="http://www.w3.org/2000/svg">
<path d="M36.42 26.2589L19.974 40.6469C18.036 42.3449 15 40.9649 15 38.3879V9.61195C14.9995 9.03522 15.1653 8.47056 15.4774 7.98561C15.7896 7.50066 16.2349 7.11597 16.7601 6.8776C17.2852 6.63923 17.868 6.5573 18.4385 6.6416C19.0091 6.72591 19.5432 6.97288 19.977 7.35295L36.417 21.7409C36.7392 22.0225 36.9975 22.3698 37.1744 22.7594C37.3514 23.149 37.4429 23.572 37.4429 23.9999C37.4429 24.4279 37.3514 24.8508 37.1744 25.2405C36.9975 25.6301 36.7392 25.9774 36.417 26.2589H36.42Z" fill="#39184A"/>
</svg>
