<svg width="48" height="48" viewBox="0 0 48 48" fill="none" xmlns="http://www.w3.org/2000/svg">
<path d="M11.58 26.2589L28.026 40.6469C29.964 42.3449 33 40.9649 33 38.3879V9.61195C33.0005 9.03522 32.8347 8.47056 32.5226 7.98561C32.2104 7.50066 31.7651 7.11597 31.2399 6.8776C30.7148 6.63923 30.132 6.5573 29.5615 6.6416C28.9909 6.72591 28.4568 6.97288 28.023 7.35295L11.583 21.7409C11.2608 22.0225 11.0025 22.3698 10.8256 22.7594C10.6486 23.149 10.5571 23.572 10.5571 23.9999C10.5571 24.4279 10.6486 24.8508 10.8256 25.2405C11.0025 25.6301 11.2608 25.9774 11.583 26.2589H11.58Z" fill="#39184A"/>
</svg>
