<svg width="20" height="16" viewBox="0 0 20 16" fill="none" xmlns="http://www.w3.org/2000/svg">
<g clip-path="url(#clip0_105_239)">
<path d="M19.5238 1.93332V14.0666C19.5238 14.44 19.3809 14.7666 19.0952 15.0466C18.8095 15.3266 18.4762 15.4666 18.0952 15.4666H1.90477C1.52381 15.4666 1.19048 15.3266 0.904771 15.0466C0.619054 14.7666 0.476196 14.44 0.476196 14.0666V1.93332C0.476196 1.56 0.619054 1.23332 0.904771 0.953324C1.19048 0.673325 1.52381 0.533325 1.90477 0.533325H18.0952C18.4762 0.533325 18.8095 0.673325 19.0952 0.953324C19.3809 1.23332 19.5238 1.56 19.5238 1.93332ZM1.90477 4.47666H18.0952V1.93332H1.90477V4.47666ZM1.90477 7.48666V14.0666H18.0952V7.48666H1.90477Z" fill="#370C26"/>
</g>
<defs>
<clipPath id="clip0_105_239">
<rect width="20" height="16" fill="white"/>
</clipPath>
</defs>
</svg>
