<svg width="32" height="32" viewBox="0 0 32 32" fill="none" xmlns="http://www.w3.org/2000/svg">
<g clip-path="url(#clip0_105_287)">
<path d="M10.142 2.48606C10.2783 2.25851 10.4995 2.09442 10.7568 2.02991C11.0141 1.9654 11.2864 2.00574 11.514 2.14206C11.7416 2.27838 11.9056 2.49952 11.9702 2.75682C12.0347 3.01412 11.9943 3.28651 11.858 3.51406L6.766 12.0001H25.234L20.14 3.51406C20.0037 3.28651 19.9633 3.01412 20.0278 2.75682C20.0924 2.49952 20.2564 2.27838 20.484 2.14206C20.7116 2.00574 20.9839 1.9654 21.2412 2.02991C21.4985 2.09442 21.7197 2.25851 21.856 2.48606L27.566 12.0001H31C31.2652 12.0001 31.5196 12.1054 31.7071 12.293C31.8946 12.4805 32 12.7348 32 13.0001V17.0001C32 17.2653 31.8946 17.5196 31.7071 17.7072C31.5196 17.8947 31.2652 18.0001 31 18.0001H30V28.0001C30 29.0609 29.5786 30.0783 28.8284 30.8285C28.0783 31.5786 27.0609 32.0001 26 32.0001H6C4.93913 32.0001 3.92172 31.5786 3.17157 30.8285C2.42143 30.0783 2 29.0609 2 28.0001V18.0001H1C0.734784 18.0001 0.48043 17.8947 0.292893 17.7072C0.105357 17.5196 0 17.2653 0 17.0001V13.0001C0 12.7348 0.105357 12.4805 0.292893 12.293C0.48043 12.1054 0.734784 12.0001 1 12.0001H4.434L10.142 2.48606ZM7 21.0001C7 20.7348 6.89464 20.4805 6.70711 20.293C6.51957 20.1054 6.26522 20.0001 6 20.0001C5.73478 20.0001 5.48043 20.1054 5.29289 20.293C5.10536 20.4805 5 20.7348 5 21.0001V27.0001C5 27.2653 5.10536 27.5196 5.29289 27.7072C5.48043 27.8947 5.73478 28.0001 6 28.0001C6.26522 28.0001 6.51957 27.8947 6.70711 27.7072C6.89464 27.5196 7 27.2653 7 27.0001V21.0001ZM12 21.0001C12 20.7348 11.8946 20.4805 11.7071 20.293C11.5196 20.1054 11.2652 20.0001 11 20.0001C10.7348 20.0001 10.4804 20.1054 10.2929 20.293C10.1054 20.4805 10 20.7348 10 21.0001V27.0001C10 27.2653 10.1054 27.5196 10.2929 27.7072C10.4804 27.8947 10.7348 28.0001 11 28.0001C11.2652 28.0001 11.5196 27.8947 11.7071 27.7072C11.8946 27.5196 12 27.2653 12 27.0001V21.0001ZM17 21.0001C17 20.7348 16.8946 20.4805 16.7071 20.293C16.5196 20.1054 16.2652 20.0001 16 20.0001C15.7348 20.0001 15.4804 20.1054 15.2929 20.293C15.1054 20.4805 15 20.7348 15 21.0001V27.0001C15 27.2653 15.1054 27.5196 15.2929 27.7072C15.4804 27.8947 15.7348 28.0001 16 28.0001C16.2652 28.0001 16.5196 27.8947 16.7071 27.7072C16.8946 27.5196 17 27.2653 17 27.0001V21.0001ZM22 21.0001C22 20.7348 21.8946 20.4805 21.7071 20.293C21.5196 20.1054 21.2652 20.0001 21 20.0001C20.7348 20.0001 20.4804 20.1054 20.2929 20.293C20.1054 20.4805 20 20.7348 20 21.0001V27.0001C20 27.2653 20.1054 27.5196 20.2929 27.7072C20.4804 27.8947 20.7348 28.0001 21 28.0001C21.2652 28.0001 21.5196 27.8947 21.7071 27.7072C21.8946 27.5196 22 27.2653 22 27.0001V21.0001ZM27 21.0001C27 20.7348 26.8946 20.4805 26.7071 20.293C26.5196 20.1054 26.2652 20.0001 26 20.0001C25.7348 20.0001 25.4804 20.1054 25.2929 20.293C25.1054 20.4805 25 20.7348 25 21.0001V27.0001C25 27.2653 25.1054 27.5196 25.2929 27.7072C25.4804 27.8947 25.7348 28.0001 26 28.0001C26.2652 28.0001 26.5196 27.8947 26.7071 27.7072C26.8946 27.5196 27 27.2653 27 27.0001V21.0001Z" fill="black"/>
</g>
<defs>
<clipPath id="clip0_105_287">
<rect width="32" height="32" fill="white"/>
</clipPath>
</defs>
</svg>
