<svg width="24" height="27" viewBox="0 0 24 27" fill="none" xmlns="http://www.w3.org/2000/svg">
<path d="M0.075 5.92492C0.226227 5.18866 0.597983 4.53127 1.12938 4.06043C1.66078 3.58959 2.32033 3.3332 3 3.33325H21C21.6797 3.3332 22.3392 3.58959 22.8706 4.06043C23.402 4.53127 23.7738 5.18866 23.925 5.92492L12 14.0233L0.075 5.92492ZM0 7.82825V19.6683L8.7045 13.7383L0 7.82825ZM10.1415 14.7166L0.2865 21.4283C0.52999 21.9987 0.91429 22.4806 1.39467 22.8179C1.87505 23.1551 2.43176 23.3339 3 23.3333H21C21.5681 23.3334 22.1246 23.1543 22.6048 22.8167C23.0849 22.4792 23.4688 21.9971 23.712 21.4266L13.857 14.7149L12 15.9766L10.1415 14.7166ZM15.2955 13.7399L24 19.6683V7.82825L15.2955 13.7383V13.7399Z" fill="#13051A"/>
</svg>
