<svg width="24" height="16" viewBox="0 0 24 16" fill="none" xmlns="http://www.w3.org/2000/svg">
<g clip-path="url(#clip0_105_234)">
<path d="M4.91702 15.4433C4.0424 15.4433 3.29793 15.1757 2.6836 14.6402C2.06928 14.1049 1.76211 13.4548 1.76211 12.69H-0.000732422V1.93332C-0.000732422 1.56 0.159526 1.23332 0.480044 0.953324C0.800561 0.673325 1.1745 0.533325 1.60186 0.533325H17.0668V4.42999H19.8714L23.5039 8.65335V12.69H21.6075C21.6075 13.4548 21.3013 14.1049 20.6892 14.6402C20.0769 15.1757 19.3335 15.4433 18.4589 15.4433C17.5842 15.4433 16.8398 15.1757 16.2255 14.6402C15.6111 14.1049 15.304 13.4548 15.304 12.69H8.06563C8.06563 13.4522 7.75951 14.1017 7.14729 14.6383C6.53505 15.175 5.79163 15.4433 4.91702 15.4433ZM4.91387 14.0433C5.34122 14.0433 5.70626 13.9111 6.00897 13.6466C6.31168 13.3822 6.46304 13.0633 6.46304 12.69C6.46304 12.3166 6.31168 11.9977 6.00897 11.7333C5.70626 11.4689 5.34122 11.3366 4.91387 11.3366C4.48652 11.3366 4.12148 11.4689 3.81877 11.7333C3.51606 11.9977 3.3647 12.3166 3.3647 12.69C3.3647 13.0633 3.51606 13.3822 3.81877 13.6466C4.12148 13.9111 4.48652 14.0433 4.91387 14.0433ZM1.60186 11.29H2.18947C2.49218 10.87 2.87539 10.5355 3.33908 10.2866C3.80279 10.0377 4.31918 9.91335 4.88825 9.91335C5.45733 9.91335 5.97781 10.0417 6.44968 10.2983C6.92156 10.555 7.30885 10.8855 7.61156 11.29H15.4642V1.93332H1.60186V11.29ZM18.4558 14.0433C18.8831 14.0433 19.2481 13.9111 19.5508 13.6466C19.8536 13.3822 20.0049 13.0633 20.0049 12.69C20.0049 12.3166 19.8536 11.9977 19.5508 11.7333C19.2481 11.4689 18.8831 11.3366 18.4558 11.3366C18.0284 11.3366 17.6634 11.4689 17.3606 11.7333C17.0579 11.9977 16.9065 12.3166 16.9065 12.69C16.9065 13.0633 17.0579 13.3822 17.3606 13.6466C17.6634 13.9111 18.0284 14.0433 18.4558 14.0433ZM17.0668 9.28335H22.0348L19.0701 5.82999H17.0668V9.28335Z" fill="#370C26"/>
</g>
<defs>
<clipPath id="clip0_105_234">
<rect width="24" height="16" fill="white"/>
</clipPath>
</defs>
</svg>
