<svg width="167" height="42" viewBox="0 0 167 42" fill="none" xmlns="http://www.w3.org/2000/svg">
<path d="M7.27734 7.40625V33H2.44336V7.40625H7.27734ZM17.5957 18.4629V22.2773H6.01172V18.4629H17.5957ZM18.9492 7.40625V11.2207H6.01172V7.40625H18.9492ZM28.6066 13.9805V33H23.9484V13.9805H28.6066ZM23.632 9.00586C23.632 8.31445 23.8664 7.74023 24.3352 7.2832C24.8156 6.82617 25.4602 6.59766 26.2687 6.59766C27.0773 6.59766 27.716 6.82617 28.1848 7.2832C28.6652 7.74023 28.9055 8.31445 28.9055 9.00586C28.9055 9.68555 28.6652 10.2539 28.1848 10.7109C27.716 11.168 27.0773 11.3965 26.2687 11.3965C25.4602 11.3965 24.8156 11.168 24.3352 10.7109C23.8664 10.2539 23.632 9.68555 23.632 9.00586ZM39.7582 6V33H35.1V6H39.7582ZM54.9879 13.9805V17.3203H44.0895V13.9805H54.9879ZM47.0074 9.30469H51.6656V27.5156C51.6656 28.0781 51.7418 28.5117 51.8941 28.8164C52.0465 29.1211 52.275 29.3262 52.5797 29.4316C52.8844 29.5371 53.2477 29.5898 53.6695 29.5898C53.9742 29.5898 54.2555 29.5723 54.5133 29.5371C54.7711 29.502 54.9879 29.4668 55.1637 29.4316L55.1813 32.9121C54.7945 33.041 54.3551 33.1465 53.8629 33.2285C53.3824 33.3105 52.8375 33.3516 52.2281 33.3516C51.1852 33.3516 50.2711 33.1758 49.4859 32.8242C48.7008 32.4609 48.0914 31.8809 47.6578 31.084C47.2242 30.2754 47.0074 29.209 47.0074 27.8848V9.30469ZM64.5223 17.8652V33H59.8816V13.9805H64.2762L64.5223 17.8652ZM70.3055 13.8574L70.2352 18.1816C69.9773 18.1348 69.6844 18.0996 69.3563 18.0762C69.0398 18.0527 68.741 18.041 68.4598 18.041C67.7449 18.041 67.118 18.1406 66.5789 18.3398C66.0398 18.5273 65.5887 18.8027 65.2254 19.166C64.8738 19.5293 64.6043 19.9746 64.4168 20.502C64.2293 21.0176 64.1238 21.6035 64.1004 22.2598L63.0984 22.1367C63.0984 20.9297 63.2215 19.8105 63.4676 18.7793C63.7137 17.748 64.0711 16.8457 64.5398 16.0723C65.0086 15.2988 65.5945 14.7012 66.2977 14.2793C67.0125 13.8457 67.8328 13.6289 68.7586 13.6289C69.0164 13.6289 69.2918 13.6523 69.5848 13.6992C69.8895 13.7344 70.1297 13.7871 70.3055 13.8574ZM73.3359 23.6836V23.3145C73.3359 21.9199 73.5352 20.6367 73.9336 19.4648C74.332 18.2812 74.9121 17.2559 75.6738 16.3887C76.4355 15.5215 77.3672 14.8477 78.4688 14.3672C79.5703 13.875 80.8242 13.6289 82.2305 13.6289C83.6602 13.6289 84.9258 13.875 86.0273 14.3672C87.1406 14.8477 88.0781 15.5215 88.8398 16.3887C89.6016 17.2559 90.1816 18.2812 90.5801 19.4648C90.9785 20.6367 91.1777 21.9199 91.1777 23.3145V23.6836C91.1777 25.0664 90.9785 26.3496 90.5801 27.5332C90.1816 28.7051 89.6016 29.7305 88.8398 30.6094C88.0781 31.4766 87.1465 32.1504 86.0449 32.6309C84.9434 33.1113 83.6836 33.3516 82.2656 33.3516C80.8594 33.3516 79.5996 33.1113 78.4863 32.6309C77.373 32.1504 76.4355 31.4766 75.6738 30.6094C74.9121 29.7305 74.332 28.7051 73.9336 27.5332C73.5352 26.3496 73.3359 25.0664 73.3359 23.6836ZM77.9766 23.3145V23.6836C77.9766 24.5156 78.0586 25.2949 78.2227 26.0215C78.3867 26.748 78.6387 27.3867 78.9785 27.9375C79.3184 28.4883 79.7578 28.9219 80.2969 29.2383C80.8477 29.543 81.5039 29.6953 82.2656 29.6953C83.0156 29.6953 83.6602 29.543 84.1992 29.2383C84.7383 28.9219 85.1777 28.4883 85.5176 27.9375C85.8691 27.3867 86.127 26.748 86.291 26.0215C86.4551 25.2949 86.5371 24.5156 86.5371 23.6836V23.3145C86.5371 22.4941 86.4551 21.7266 86.291 21.0117C86.127 20.2852 85.8691 19.6465 85.5176 19.0957C85.1777 18.5332 84.7324 18.0938 84.1816 17.7773C83.6426 17.4492 82.9922 17.2852 82.2305 17.2852C81.4805 17.2852 80.8359 17.4492 80.2969 17.7773C79.7578 18.0938 79.3184 18.5332 78.9785 19.0957C78.6387 19.6465 78.3867 20.2852 78.2227 21.0117C78.0586 21.7266 77.9766 22.4941 77.9766 23.3145ZM106.812 27.7969C106.812 27.3984 106.706 27.041 106.495 26.7246C106.284 26.4082 105.886 26.1211 105.3 25.8633C104.726 25.5938 103.882 25.3418 102.769 25.1074C101.784 24.8965 100.876 24.6328 100.044 24.3164C99.2121 24 98.4973 23.6191 97.8996 23.1738C97.302 22.7168 96.8332 22.1836 96.4934 21.5742C96.1652 20.9531 96.0012 20.2383 96.0012 19.4297C96.0012 18.6445 96.1711 17.9062 96.5109 17.2148C96.8508 16.5117 97.343 15.8965 97.9875 15.3691C98.632 14.8301 99.4172 14.4082 100.343 14.1035C101.269 13.7871 102.312 13.6289 103.472 13.6289C105.089 13.6289 106.478 13.8926 107.638 14.4199C108.81 14.9473 109.706 15.6738 110.327 16.5996C110.948 17.5137 111.259 18.5449 111.259 19.6934H106.618C106.618 19.1895 106.501 18.7324 106.267 18.3223C106.044 17.9121 105.698 17.584 105.23 17.3379C104.761 17.0801 104.169 16.9512 103.454 16.9512C102.81 16.9512 102.265 17.0566 101.82 17.2676C101.386 17.4785 101.058 17.7539 100.835 18.0938C100.613 18.4336 100.501 18.8086 100.501 19.2188C100.501 19.5234 100.56 19.7988 100.677 20.0449C100.806 20.2793 101.011 20.4961 101.292 20.6953C101.573 20.8945 101.954 21.0762 102.435 21.2402C102.927 21.4043 103.53 21.5625 104.245 21.7148C105.663 21.9961 106.9 22.3711 107.954 22.8398C109.021 23.2969 109.853 23.9062 110.45 24.668C111.048 25.4297 111.347 26.4023 111.347 27.5859C111.347 28.4297 111.165 29.2031 110.802 29.9062C110.439 30.5977 109.911 31.2012 109.22 31.7168C108.529 32.2324 107.702 32.6367 106.741 32.9297C105.78 33.2109 104.696 33.3516 103.489 33.3516C101.743 33.3516 100.267 33.041 99.0598 32.4199C97.8527 31.7871 96.9387 30.9902 96.3176 30.0293C95.6965 29.0566 95.3859 28.0488 95.3859 27.0059H99.8332C99.8684 27.7441 100.068 28.3359 100.431 28.7812C100.794 29.2266 101.251 29.5488 101.802 29.748C102.364 29.9355 102.956 30.0293 103.577 30.0293C104.28 30.0293 104.872 29.9355 105.353 29.748C105.833 29.5488 106.196 29.2852 106.443 28.957C106.689 28.6172 106.812 28.2305 106.812 27.7969Z" fill="#02121A"/>
<path d="M130.25 27.5625C130.25 27.2144 130.388 26.8806 130.634 26.6344C130.881 26.3883 131.214 26.25 131.562 26.25H139.438C139.786 26.25 140.119 26.3883 140.366 26.6344C140.612 26.8806 140.75 27.2144 140.75 27.5625C140.75 27.9106 140.612 28.2444 140.366 28.4906C140.119 28.7367 139.786 28.875 139.438 28.875H131.562C131.214 28.875 130.881 28.7367 130.634 28.4906C130.388 28.2444 130.25 27.9106 130.25 27.5625ZM130.25 19.6875C130.25 19.3394 130.388 19.0056 130.634 18.7594C130.881 18.5133 131.214 18.375 131.562 18.375H149.938C150.286 18.375 150.619 18.5133 150.866 18.7594C151.112 19.0056 151.25 19.3394 151.25 19.6875C151.25 20.0356 151.112 20.3694 150.866 20.6156C150.619 20.8617 150.286 21 149.938 21H131.562C131.214 21 130.881 20.8617 130.634 20.6156C130.388 20.3694 130.25 20.0356 130.25 19.6875ZM130.25 11.8125C130.25 11.4644 130.388 11.1306 130.634 10.8844C130.881 10.6383 131.214 10.5 131.562 10.5H160.438C160.786 10.5 161.119 10.6383 161.366 10.8844C161.612 11.1306 161.75 11.4644 161.75 11.8125C161.75 12.1606 161.612 12.4944 161.366 12.7406C161.119 12.9867 160.786 13.125 160.438 13.125H131.562C131.214 13.125 130.881 12.9867 130.634 12.7406C130.388 12.4944 130.25 12.1606 130.25 11.8125Z" fill="#02121A"/>
</svg>
