<svg width="24" height="24" viewBox="0 0 32 32" fill="none" xmlns="http://www.w3.org/2000/svg">
<path d="M5.68 25C7.36 23.8266 9.02666 22.9266 10.68 22.3C12.3333 21.6734 14.1067 21.36 16 21.36C17.8933 21.36 19.6733 21.6734 21.34 22.3C23.0066 22.9266 24.68 23.8266 26.36 25C27.5334 23.56 28.3666 22.1066 28.86 20.64C29.3534 19.1733 29.6 17.6267 29.6 16C29.6 12.1333 28.3 8.9 25.7 6.3C23.1 3.7 19.8667 2.4 16 2.4C12.1333 2.4 8.9 3.7 6.3 6.3C3.7 8.9 2.4 12.1333 2.4 16C2.4 17.6267 2.65334 19.1733 3.16 20.64C3.66666 22.1066 4.50666 23.56 5.68 25ZM15.9926 17.2C14.4509 17.2 13.1533 16.6709 12.1 15.6126C11.0467 14.5543 10.52 13.2543 10.52 11.7126C10.52 10.1709 11.0491 8.87334 12.1074 7.82C13.1657 6.76666 14.4657 6.24 16.0074 6.24C17.5491 6.24 18.8467 6.76914 19.9 7.82744C20.9534 8.88574 21.48 10.1857 21.48 11.7274C21.48 13.2691 20.9508 14.5667 19.8926 15.62C18.8343 16.6733 17.5343 17.2 15.9926 17.2ZM16.0187 32C13.8196 32 11.7467 31.58 9.8 30.74C7.85334 29.9 6.15334 28.7534 4.7 27.3C3.24666 25.8466 2.1 24.1498 1.26 22.2094C0.42 20.269 0 18.1956 0 15.9894C0 13.7831 0.42 11.7133 1.26 9.78C2.1 7.84666 3.24666 6.15334 4.7 4.7C6.15334 3.24666 7.85022 2.1 9.79064 1.26C11.7311 0.42 13.8044 0 16.0106 0C18.2169 0 20.2866 0.42 22.22 1.26C24.1534 2.1 25.8466 3.24666 27.3 4.7C28.7534 6.15334 29.9 7.8471 30.74 9.78128C31.58 11.7155 32 13.7821 32 15.9813C32 18.1804 31.58 20.2534 30.74 22.2C29.9 24.1466 28.7534 25.8466 27.3 27.3C25.8466 28.7534 24.153 29.9 22.2188 30.74C20.2846 31.58 18.2179 32 16.0187 32ZM16 29.6C17.4667 29.6 18.9 29.3866 20.3 28.96C21.7 28.5334 23.08 27.7866 24.44 26.72C23.08 25.76 21.6934 25.0266 20.28 24.52C18.8667 24.0134 17.44 23.76 16 23.76C14.56 23.76 13.1333 24.0134 11.72 24.52C10.3067 25.0266 8.92 25.76 7.56 26.72C8.92 27.7866 10.3 28.5334 11.7 28.96C13.1 29.3866 14.5333 29.6 16 29.6ZM16 14.8C16.9067 14.8 17.6467 14.5133 18.22 13.94C18.7933 13.3667 19.08 12.6267 19.08 11.72C19.08 10.8133 18.7933 10.0733 18.22 9.5C17.6467 8.92666 16.9067 8.64 16 8.64C15.0933 8.64 14.3533 8.92666 13.78 9.5C13.2067 10.0733 12.92 10.8133 12.92 11.72C12.92 12.6267 13.2067 13.3667 13.78 13.94C14.3533 14.5133 15.0933 14.8 16 14.8Z" fill="black"/>
</svg>
