<svg width="16" height="16" viewBox="0 0 16 16" fill="none" xmlns="http://www.w3.org/2000/svg">
<path d="M3.15383 15.4188C2.85767 15.4188 2.60415 15.3134 2.39325 15.1025C2.18235 14.8916 2.0769 14.638 2.0769 14.3419V6.55213C2.0769 6.25601 2.18235 6.00246 2.39325 5.79157C2.60415 5.58067 2.85767 5.47522 3.15383 5.47522H4.41024V3.75214C4.41024 2.80864 4.74292 2.00439 5.4083 1.33939C6.07366 0.674389 6.87836 0.341888 7.82239 0.341888C8.76646 0.341888 9.57052 0.674389 10.2346 1.33939C10.8987 2.00439 11.2308 2.80864 11.2308 3.75214V5.47522H12.4871C12.7833 5.47522 13.0369 5.58067 13.2477 5.79157C13.4586 6.00246 13.5641 6.25601 13.5641 6.55213V14.3419C13.5641 14.638 13.4586 14.8916 13.2477 15.1025C13.0369 15.3134 12.7833 15.4188 12.4871 15.4188H3.15383ZM3.15383 14.3419H12.4871V6.55213H3.15383V14.3419ZM7.82351 11.8291C8.20443 11.8291 8.52947 11.6972 8.7987 11.4337C9.06793 11.17 9.20252 10.8531 9.20252 10.4829C9.20252 10.1239 9.06695 9.79785 8.79569 9.50468C8.52443 9.21157 8.19839 9.06499 7.81748 9.06499C7.43659 9.06499 7.11152 9.21157 6.84229 9.50468C6.57306 9.79785 6.43844 10.127 6.43844 10.4919C6.43844 10.8569 6.57406 11.171 6.8453 11.4342C7.11654 11.6974 7.44262 11.8291 7.82351 11.8291ZM5.48716 5.47522H10.1538V3.75214C10.1538 3.10399 9.92719 2.55307 9.4739 2.09937C9.02061 1.64567 8.47015 1.41881 7.82261 1.41881C7.17505 1.41881 6.62391 1.64567 6.16921 2.09937C5.71451 2.55307 5.48716 3.10399 5.48716 3.75214V5.47522Z" fill="#370C26"/>
</svg>
