<svg width="20" height="15" viewBox="0 0 20 15" fill="none" xmlns="http://www.w3.org/2000/svg">
<path d="M19.0476 1.4V13.5333C19.0476 13.9067 18.9047 14.2333 18.619 14.5133C18.3333 14.7933 18 14.9333 17.619 14.9333H1.42857C1.04762 14.9333 0.714289 14.7933 0.428574 14.5133C0.142858 14.2333 0 13.9067 0 13.5333V1.4C0 1.02667 0.142858 0.699998 0.428574 0.419998C0.714289 0.14 1.04762 0 1.42857 0H17.619C18 0 18.3333 0.14 18.619 0.419998C18.9047 0.699998 19.0476 1.02667 19.0476 1.4ZM1.42857 3.94333H17.619V1.4H1.42857V3.94333ZM1.42857 6.95333V13.5333H17.619V6.95333H1.42857Z" fill="#370C26"/>
</svg>
